<?xml version="1.0" standalone="no"?>
<!DOCTYPE svg PUBLIC "-//W3C//DTD SVG 20010904//EN"
 "http://www.w3.org/TR/2001/REC-SVG-20010904/DTD/svg10.dtd">
<svg version="1.0" xmlns="http://www.w3.org/2000/svg"
 width="900.000000pt" height="900.000000pt" viewBox="0 0 900.000000 900.000000"
 preserveAspectRatio="xMidYMid meet">
<metadata>
Created by potrace 1.10, written by Peter Selinger 2001-2011
</metadata>
<g transform="translate(0.000000,900.000000) scale(0.100000,-0.100000)"
fill="#ffffff" stroke="none">
<path d="M2300 8698 c-267 -24 -571 -115 -812 -242 -117 -61 -126 -66 -193
-112 -149 -99 -222 -158 -344 -277 -265 -259 -454 -560 -565 -902 -57 -174
-89 -329 -105 -506 -15 -160 -15 -4182 -1 -4334 30 -307 110 -582 244 -837 68
-129 92 -169 177 -288 88 -125 267 -315 384 -409 39 -31 72 -58 75 -61 15 -15
183 -127 225 -151 94 -52 197 -104 250 -125 33 -14 69 -29 80 -34 30 -13 201
-66 270 -84 93 -23 219 -44 340 -56 152 -14 4178 -14 4330 0 303 29 585 111
837 244 129 68 169 92 288 177 163 116 385 337 499 499 86 120 109 159 177
288 132 251 213 530 244 840 14 143 14 4178 0 4327 -29 302 -112 586 -244 837
-68 129 -91 168 -177 288 -115 163 -339 388 -494 496 -139 97 -179 121 -293
181 -258 134 -538 216 -833 242 -143 13 -4217 12 -4359 -1z m-8 -2669 c29 -6
69 -21 88 -32 27 -16 552 -482 875 -776 22 -20 155 -139 295 -265 367 -329
370 -332 370 -466 0 -88 -16 -130 -73 -193 -18 -19 -149 -140 -292 -268 -143
-129 -278 -250 -300 -270 -341 -310 -848 -760 -875 -776 -139 -82 -313 -28
-393 122 -16 31 -21 58 -21 120 0 112 20 148 140 256 38 34 92 83 119 108 28
26 88 80 135 121 47 40 87 76 90 80 3 3 97 89 210 190 113 101 207 187 210
190 5 6 253 228 313 280 15 13 27 31 27 40 0 9 -12 27 -27 40 -60 52 -308 274
-313 280 -3 3 -97 89 -210 190 -113 101 -207 187 -210 190 -3 4 -43 40 -90 80
-47 41 -107 95 -135 121 -27 25 -81 74 -119 108 -119 107 -139 144 -140 256 0
63 4 89 21 120 43 81 105 131 188 151 65 16 56 16 117 3z m4560 -2549 c55 -24
111 -78 140 -133 31 -60 31 -185 0 -242 -44 -82 -106 -132 -190 -151 -84 -20
-2290 -20 -2374 0 -84 19 -146 69 -190 151 -31 57 -31 182 0 242 29 56 82 108
134 132 42 19 74 19 1239 20 1168 1 1198 1 1241 -19z"/>
</g>
</svg>
